<?xml version="1.0" encoding="UTF-8"?>
<!DOCTYPE svg PUBLIC "-//W3C//DTD SVG 1.1//EN" "http://www.w3.org/Graphics/SVG/1.1/DTD/svg11.dtd">
<svg xmlns="http://www.w3.org/2000/svg" version="1.1" width="230px" height="129px" style="shape-rendering:geometricPrecision; text-rendering:geometricPrecision; image-rendering:optimizeQuality; fill-rule:evenodd; clip-rule:evenodd" xmlns:xlink="http://www.w3.org/1999/xlink">
<g><path style="opacity:0.939" fill="#306dec" d="M 92.5,28.5 C 101.262,31.715 109.595,35.715 117.5,40.5C 108,59.5 98.5,78.5 89,97.5C 88.4387,98.0219 87.772,98.3552 87,98.5C 78.8655,95.1895 71.3655,91.0228 64.5,86C 73.983,66.8682 83.3163,47.7015 92.5,28.5 Z"/></g>
<g><path style="opacity:0.949" fill="#6b6e77" d="M 116.5,62.5 C 133.614,62.3785 139.114,70.3785 133,86.5C 126.803,92.1041 119.969,92.9374 112.5,89C 106.874,82.459 106.04,75.2923 110,67.5C 111.965,65.4497 114.132,63.783 116.5,62.5 Z"/></g>
<g><path style="opacity:0.894" fill="#306dec" d="M 148.5,75.5 C 157.003,76.5079 160.17,81.1745 158,89.5C 155.459,94.0685 151.625,95.5685 146.5,94C 144.333,93.1667 142.833,91.6667 142,89.5C 139.746,82.5755 141.913,77.9089 148.5,75.5 Z"/></g>
</svg>
